<svg width="2000" height="3800" viewBox="0 0 2000 3800" fill="none" xmlns="http://www.w3.org/2000/svg">
<g clip-path="url(#clip0_4754_12060)">
<g opacity="0.9" filter="url(#filter0_f_4754_12060)">
<rect x="747" y="3539" width="392" height="392" rx="128" transform="rotate(180 747 3539)" fill="#E755D6"/>
<rect x="511" y="2857" width="344" height="344" rx="104" fill="#00C74F"/>
<rect x="777" y="2956" width="276" height="276" rx="80" fill="#00C74F"/>
<rect x="1181" y="3274" width="276" height="276" rx="80" transform="rotate(180 1181 3274)" fill="#459BF7"/>
<rect x="543" y="3164" width="276" height="276" rx="80" transform="rotate(180 543 3164)" fill="#459BF7"/>
<rect x="653" y="3209" width="228" height="228" rx="56" fill="#E755D6"/>
</g>
<g opacity="0.9" filter="url(#filter1_f_4754_12060)">
<rect x="1064" y="1416" width="276" height="276" rx="80" fill="#459BF7"/>
<rect x="973" y="1554" width="276" height="276" rx="80" fill="#00C74F"/>
<rect x="1030" y="1627" width="344" height="344" rx="104" fill="#459BF7"/>
<rect x="675" y="1302" width="228" height="228" rx="56" fill="#E755D6"/>
<rect x="825" y="1282" width="228" height="228" rx="56" fill="#E755D6"/>
<rect x="857" y="1807" width="392" height="392" rx="128" fill="#00C74F"/>
<rect x="559" y="1520" width="344" height="344" rx="104" fill="#E755D6"/>
</g>
<g opacity="0.9" filter="url(#filter2_f_4754_12060)">
<rect x="748" y="350" width="276" height="276" rx="80" fill="#459BF7"/>
<rect x="748" y="350" width="276" height="276" rx="80" fill="#459BF7"/>
<rect x="1286" y="708" width="276" height="276" rx="80" fill="#00C74F"/>
<rect x="946" y="505" width="392" height="392" rx="128" fill="#00C74F"/>
<rect x="868" y="392" width="276" height="276" rx="80" fill="#00C74F"/>
<rect x="810" y="488" width="344" height="344" rx="104" fill="#459BF7"/>
<rect x="1228" y="154" width="392" height="392" rx="128" fill="#E755D6"/>
<rect x="973" y="160" width="276" height="276" rx="80" fill="#E755D6"/>
</g>
</g>
<defs>
<filter id="filter0_f_4754_12060" x="87" y="2677" width="1274" height="1042" filterUnits="userSpaceOnUse" color-interpolation-filters="sRGB">
<feFlood flood-opacity="0" result="BackgroundImageFix"/>
<feBlend mode="normal" in="SourceGraphic" in2="BackgroundImageFix" result="shape"/>
<feGaussianBlur stdDeviation="90" result="effect1_foregroundBlur_4754_12060"/>
</filter>
<filter id="filter1_f_4754_12060" x="379" y="1102" width="1175" height="1277" filterUnits="userSpaceOnUse" color-interpolation-filters="sRGB">
<feFlood flood-opacity="0" result="BackgroundImageFix"/>
<feBlend mode="normal" in="SourceGraphic" in2="BackgroundImageFix" result="shape"/>
<feGaussianBlur stdDeviation="90" result="effect1_foregroundBlur_4754_12060"/>
</filter>
<filter id="filter2_f_4754_12060" x="568" y="-26" width="1232" height="1190" filterUnits="userSpaceOnUse" color-interpolation-filters="sRGB">
<feFlood flood-opacity="0" result="BackgroundImageFix"/>
<feBlend mode="normal" in="SourceGraphic" in2="BackgroundImageFix" result="shape"/>
<feGaussianBlur stdDeviation="90" result="effect1_foregroundBlur_4754_12060"/>
</filter>
<clipPath id="clip0_4754_12060">
<rect width="2000" height="3800" fill="white"/>
</clipPath>
</defs>
</svg>
