<svg width="1280" height="1600" viewBox="0 0 1280 1600" fill="none" xmlns="http://www.w3.org/2000/svg">
<rect opacity="0.15" x="646" y="266" width="8" height="8" rx="3" fill="white"/>
<rect opacity="0.15" x="688" y="188" width="4" height="4" rx="1.5" fill="white"/>
<rect opacity="0.15" x="868" y="748" width="4" height="4" rx="1.5" fill="white"/>
<rect opacity="0.15" x="888" y="788" width="4" height="4" rx="1.5" fill="white"/>
<rect opacity="0.5" x="568" y="128" width="4" height="4" rx="1.5" fill="white"/>
<rect opacity="0.5" x="208" y="28" width="4" height="4" rx="1.5" fill="white"/>
<rect opacity="0.15" x="1208" y="328" width="4" height="4" rx="1.5" fill="white"/>
<rect opacity="0.5" x="128" y="628" width="4" height="4" rx="1.5" fill="white"/>
<rect opacity="0.5" x="26" y="286" width="8" height="8" rx="3" fill="white"/>
<rect opacity="0.15" x="1088" y="628" width="4" height="4" rx="1.5" fill="white"/>
<rect opacity="0.5" x="1106" y="586" width="8" height="8" rx="3" fill="white"/>
<rect opacity="0.15" x="1248" y="508" width="4" height="4" rx="1.5" fill="white"/>
<rect opacity="0.5" x="1126" y="126" width="8" height="8" rx="3" fill="white"/>
<rect opacity="0.5" x="1188" y="188" width="4" height="4" rx="1.5" fill="white"/>
<rect opacity="0.5" x="708" y="228" width="4" height="4" rx="1.5" fill="white"/>
<rect opacity="0.5" x="828" y="768" width="4" height="4" rx="1.5" fill="white"/>
<rect opacity="0.5" x="1008" y="708" width="4" height="4" rx="1.5" fill="white"/>
<rect opacity="0.15" x="308" y="68" width="4" height="4" rx="1.5" fill="white"/>
<rect opacity="0.15" x="526" y="546" width="8" height="8" rx="3" fill="white"/>
<rect opacity="0.15" x="588" y="608" width="4" height="4" rx="1.5" fill="white"/>
<rect opacity="0.15" x="428" y="568" width="4" height="4" rx="1.5" fill="white"/>
<rect opacity="0.15" x="68" y="328" width="4" height="4" rx="1.5" fill="white"/>
<rect opacity="0.15" x="248" y="188" width="4" height="4" rx="1.5" fill="white"/>
<rect opacity="0.15" x="348" y="48" width="4" height="4" rx="1.5" fill="white"/>
<rect opacity="0.15" x="634" y="1334" width="8" height="8" rx="3" transform="rotate(180 634 1334)" fill="white"/>
<rect opacity="0.15" x="592" y="1412" width="4" height="4" rx="1.5" transform="rotate(180 592 1412)" fill="white"/>
<rect opacity="0.15" x="412" y="852" width="4" height="4" rx="1.5" transform="rotate(180 412 852)" fill="white"/>
<rect opacity="0.15" x="392" y="812" width="4" height="4" rx="1.5" transform="rotate(180 392 812)" fill="white"/>
<rect opacity="0.5" x="712" y="1472" width="4" height="4" rx="1.5" transform="rotate(180 712 1472)" fill="white"/>
<rect opacity="0.5" x="1072" y="1572" width="4" height="4" rx="1.5" transform="rotate(180 1072 1572)" fill="white"/>
<rect opacity="0.15" x="72" y="1272" width="4" height="4" rx="1.5" transform="rotate(180 72 1272)" fill="white"/>
<rect opacity="0.5" x="1254" y="1314" width="8" height="8" rx="3" transform="rotate(180 1254 1314)" fill="white"/>
<rect opacity="0.15" x="192" y="972" width="4" height="4" rx="1.5" transform="rotate(180 192 972)" fill="white"/>
<rect opacity="0.5" x="174" y="1014" width="8" height="8" rx="3" transform="rotate(180 174 1014)" fill="white"/>
<rect opacity="0.15" x="32" y="1092" width="4" height="4" rx="1.5" transform="rotate(180 32 1092)" fill="white"/>
<rect opacity="0.5" x="154" y="1474" width="8" height="8" rx="3" transform="rotate(180 154 1474)" fill="white"/>
<rect opacity="0.5" x="92" y="1412" width="4" height="4" rx="1.5" transform="rotate(180 92 1412)" fill="white"/>
<rect opacity="0.5" x="572" y="1372" width="4" height="4" rx="1.5" transform="rotate(180 572 1372)" fill="white"/>
<rect opacity="0.5" x="452" y="832" width="4" height="4" rx="1.5" transform="rotate(180 452 832)" fill="white"/>
<rect opacity="0.5" x="272" y="892" width="4" height="4" rx="1.5" transform="rotate(180 272 892)" fill="white"/>
<rect opacity="0.15" x="972" y="1532" width="4" height="4" rx="1.5" transform="rotate(180 972 1532)" fill="white"/>
<rect opacity="0.15" x="754" y="1054" width="8" height="8" rx="3" transform="rotate(180 754 1054)" fill="white"/>
<rect opacity="0.15" x="692" y="992" width="4" height="4" rx="1.5" transform="rotate(180 692 992)" fill="white"/>
<rect opacity="0.15" x="852" y="1032" width="4" height="4" rx="1.5" transform="rotate(180 852 1032)" fill="white"/>
<rect opacity="0.15" x="1212" y="1272" width="4" height="4" rx="1.5" transform="rotate(180 1212 1272)" fill="white"/>
<rect opacity="0.15" x="1032" y="1412" width="4" height="4" rx="1.5" transform="rotate(180 1032 1412)" fill="white"/>
<rect opacity="0.15" x="932" y="1552" width="4" height="4" rx="1.5" transform="rotate(180 932 1552)" fill="white"/>
</svg>
