<svg width="988" height="456" viewBox="0 0 988 456" fill="none" xmlns="http://www.w3.org/2000/svg">
<path d="M88.0001 0C39.3991 0 0.00012207 39.3989 0.00012207 88V344C0.00012207 368.117 9.70203 389.969 25.4159 405.865C37.5727 418.162 51.3344 429.273 65.5703 439.089C81.0386 449.755 99.79 456 120 456H360C413.019 456 456 413.019 456 360V120C456 99.7899 449.755 81.0385 439.089 65.5702C429.273 51.3342 418.162 37.5726 405.865 25.4158C389.969 9.70191 368.118 0 344 0H88.0001Z" fill="white"/>
<path d="M128 88C105.909 88 88.0001 105.909 88.0001 128V304C88.0001 326.091 105.909 344 128 344H224V272.084C224 267.666 220.418 264.084 216 264.084H196C176 264.084 160 256 152 248C144 240 136 224 136 200V196C136 191.582 139.582 188 144 188H176C196 188 208 192.13 220 204C232 215.87 232 232 232 232C232 232 234 226 240 220C246 214 256 212 264 212H284C288.418 212 292 215.582 292 220V224C292 236 290 248 280 256C270 264 260 264 252 264H248C243.582 264 240 267.582 240 272V344H304C326.091 344 344 326.091 344 304V128C344 105.909 326.091 88 304 88H128Z" fill="#52DE6E"/>
<path d="M380 187C375.582 187 372 190.582 372 195V235C372 239.418 375.582 243 380 243C384.418 243 388 239.418 388 235V195C388 190.582 384.418 187 380 187Z" fill="#52DE6E"/>
<path fill-rule="evenodd" clip-rule="evenodd" d="M88.0001 0C39.3991 0 0.00012207 39.3989 0.00012207 88V344C0.00012207 368.117 9.70203 389.969 25.4159 405.865C37.5728 418.162 51.3344 429.273 65.5703 439.089C81.0386 449.755 99.7901 456 120 456H360C413.019 456 456 413.019 456 360V120C456 99.7899 449.755 81.0385 439.089 65.5702C429.273 51.3342 418.162 37.5726 405.865 25.4157C389.969 9.70189 368.118 0 344 0H88.0001ZM344 16C358.912 16 372.765 20.5331 384.256 28.2965C403.408 41.2354 416 63.1472 416 88V344C416 383.764 383.765 416 344 416H88.0001C61.8556 416 38.9658 402.065 26.3527 381.217C19.7819 370.357 16.0001 357.62 16.0001 344V88C16.0001 48.2355 48.2356 16 88.0001 16H344Z" fill="#52DE6E"/>
<path d="M620 96C620 89.3726 625.373 84 632 84H640C646.628 84 652 89.3726 652 96V104C652 110.627 646.628 116 640 116H632C625.373 116 620 110.627 620 104V96Z" fill="white"/>
<path d="M672 128C672 121.373 677.373 116 684 116H728C732.418 116 736 119.582 736 124C736 128.418 739.582 132 744 132H756C762.628 132 768 137.373 768 144V200C768 206.627 762.628 212 756 212H748C741.373 212 736 206.627 736 200V160C736 153.373 730.628 148 724 148H716C709.373 148 704 153.373 704 160V200C704 206.627 698.628 212 692 212H684C677.373 212 672 206.627 672 200V128Z" fill="white"/>
<path d="M800 116C793.373 116 788 121.373 788 128V184C788 190.627 793.373 196 800 196H844C848.418 196 852 199.582 852 204C852 208.418 848.418 212 844 212H816C809.373 212 804 217.373 804 224V232C804 238.627 809.373 244 816 244H856C862.628 244 868 238.627 868 232V220C868 215.582 871.582 212 876 212C880.418 212 884 208.418 884 204V128C884 121.373 878.628 116 872 116H864C857.373 116 852 121.373 852 128V152C852 158.627 846.628 164 840 164H832C825.373 164 820 158.627 820 152V128C820 121.373 814.628 116 808 116H800Z" fill="white"/>
<path d="M620 144C620 137.373 625.373 132 632 132H640C646.628 132 652 137.373 652 144V200C652 206.627 646.628 212 640 212H632C625.373 212 620 206.627 620 200V144Z" fill="white"/>
<path d="M536 96C536 89.3726 541.373 84 548 84H556C562.628 84 568 89.3726 568 96V104C568 110.627 573.373 116 580 116H588C594.628 116 600 121.373 600 128V136C600 142.627 594.628 148 588 148H580C573.373 148 568 153.373 568 160V168C568 174.627 573.373 180 580 180H588C594.628 180 600 185.373 600 192V200C600 206.627 594.628 212 588 212H548C541.373 212 536 206.627 536 200V96Z" fill="white"/>
<path d="M576 244C571.582 244 568 247.582 568 252C568 256.418 564.418 260 560 260H548C541.373 260 536 265.373 536 272V360C536 366.627 541.373 372 548 372H556C562.628 372 568 366.627 568 360V352C568 345.373 573.373 340 580 340H588C594.628 340 600 334.627 600 328V320C600 313.373 594.628 308 588 308H580C573.373 308 568 302.627 568 296V288C568 281.373 573.373 276 580 276H588C594.628 276 600 270.627 600 264V256C600 249.373 594.628 244 588 244H576Z" fill="#52DE6E"/>
<path d="M760 276C753.373 276 748 281.373 748 288V360C748 366.627 753.373 372 760 372H768C774.628 372 780 366.627 780 360V320C780 313.373 785.373 308 792 308H800C806.628 308 812 302.627 812 296V288C812 281.373 806.628 276 800 276H760Z" fill="#52DE6E"/>
<path d="M828 288C828 281.373 833.373 276 840 276H948C952.418 276 956 279.582 956 284C956 288.418 959.582 292 964 292H976C982.628 292 988 297.373 988 304V360C988 366.627 982.628 372 976 372H968C961.373 372 956 366.627 956 360V320C956 313.373 950.628 308 944 308H936C929.373 308 924 313.373 924 320V360C924 366.627 918.628 372 912 372H904C897.373 372 892 366.627 892 360V320C892 313.373 886.628 308 880 308H872C865.373 308 860 313.373 860 320V360C860 366.627 854.628 372 848 372H840C833.373 372 828 366.627 828 360V288Z" fill="#52DE6E"/>
<path fill-rule="evenodd" clip-rule="evenodd" d="M636 300C636 304.418 632.418 308 628 308C623.582 308 620 311.582 620 316V360C620 366.627 625.373 372 632 372H676C680.418 372 684 368.418 684 364C684 359.582 687.582 356 692 356C696.418 356 700 359.582 700 364C700 368.418 703.582 372 708 372H720C726.628 372 732 366.627 732 360V348C732 343.582 728.418 340 724 340C719.582 340 716 336.418 716 332V288C716 281.373 710.628 276 704 276H648C641.373 276 636 281.373 636 288V300ZM672 308C678.628 308 684 313.373 684 320V328C684 334.627 678.628 340 672 340H664C657.373 340 652 334.627 652 328V320C652 313.373 657.373 308 664 308H672Z" fill="#52DE6E"/>
</svg>
