<svg width="456" height="456" viewBox="0 0 456 456" fill="none" xmlns="http://www.w3.org/2000/svg">
<path d="M128 88C105.909 88 88 105.909 88 128V304C88 326.091 105.909 344 128 344H224V272.084C224 267.666 220.418 264.084 216 264.084H196C176 264.084 160 256 152 248C144 240 136 224 136 200V196C136 191.582 139.582 188 144 188H176C196 188 208 192.13 220 204C232 215.87 232 232 232 232C232 232 234 226 240 220C246 214 256 212 264 212H284C288.418 212 292 215.582 292 220V224C292 236 290 248 280 256C270 264 260 264 252 264H248C243.582 264 240 267.582 240 272V344H304C326.091 344 344 326.091 344 304V128C344 105.909 326.091 88 304 88H128Z" fill="#00C74F"/>
<path d="M380 187C375.582 187 372 190.582 372 195V235C372 239.418 375.582 243 380 243C384.418 243 388 239.418 388 235V195C388 190.582 384.418 187 380 187Z" fill="#00C74F"/>
<path fill-rule="evenodd" clip-rule="evenodd" d="M88 0C39.3989 0 0 39.3989 0 88V344C0 368.117 9.70191 389.969 25.4158 405.865C37.5726 418.162 51.3343 429.273 65.5702 439.089C81.0385 449.755 99.7899 456 120 456H360C413.019 456 456 413.019 456 360V120C456 99.7899 449.755 81.0385 439.089 65.5702C429.273 51.3342 418.162 37.5726 405.864 25.4157C389.969 9.70189 368.117 0 344 0H88ZM344 16C358.912 16 372.765 20.5331 384.256 28.2965C403.408 41.2354 416 63.1472 416 88V344C416 383.764 383.764 416 344 416H88C61.8555 416 38.9657 402.065 26.3526 381.217C19.7818 370.357 16 357.62 16 344V88C16 48.2355 48.2355 16 88 16H344Z" fill="#00C74F"/>
</svg>
