<svg width="72" height="72" viewBox="0 0 72 72" fill="none" xmlns="http://www.w3.org/2000/svg">
<g clip-path="url(#clip0_4398_5477)">
<path d="M13.8947 0C6.22088 0 0 6.22089 0 13.8947V54.3158C0 58.1238 1.53188 61.574 4.01302 64.0839C5.93252 66.0256 8.10541 67.78 10.3532 69.3299C12.7955 71.0139 15.7563 72 18.9474 72H56.8421C65.2136 72 72 65.2136 72 56.8421V18.9474C72 15.7563 71.0139 12.7955 69.3299 10.3532C67.78 8.10541 66.0256 5.93252 64.0839 4.01302C61.574 1.53188 58.1238 0 54.3158 0H13.8947Z" fill="white"/>
<path fill-rule="evenodd" clip-rule="evenodd" d="M13.8947 0C6.22088 0 0 6.22089 0 13.8947V54.3158C0 58.1238 1.53188 61.574 4.01302 64.0839C5.93252 66.0256 8.10541 67.78 10.3532 69.3299C12.7956 71.0139 15.7563 72 18.9474 72H56.8421C65.2136 72 72 65.2136 72 56.8421V18.9474C72 15.7563 71.0139 12.7955 69.3299 10.3532C67.78 8.1054 66.0256 5.93251 64.0839 4.01301C61.574 1.53188 58.1238 0 54.3158 0H13.8947ZM54.3158 2.52632C56.6703 2.52632 58.8576 3.24207 60.672 4.46786C63.696 6.51085 65.6842 9.97061 65.6842 13.8947V54.3158C65.6842 60.5944 60.5944 65.6842 54.3158 65.6842H13.8947C9.76666 65.6842 6.15248 63.484 4.16094 60.1922C3.12344 58.4774 2.52632 56.4663 2.52632 54.3158V13.8947C2.52632 7.61613 7.61613 2.52632 13.8947 2.52632H54.3158ZM14.5263 25.8947C13.8287 25.8947 13.2632 26.4603 13.2632 27.1579V39.7895C13.2632 40.4871 13.8287 41.0526 14.5263 41.0526H19.5789C20.2766 41.0526 20.8421 40.4871 20.8421 39.7895V38.5263C20.8421 37.8287 20.2766 37.2632 19.5789 37.2632H18.3158C17.6182 37.2632 17.0526 36.6976 17.0526 36V34.7368C17.0526 34.0392 17.6182 33.4737 18.3158 33.4737H19.5789C20.2766 33.4737 20.8421 32.9081 20.8421 32.2105V30.9474C20.8421 30.2497 20.2766 29.6842 19.5789 29.6842H18.3158C17.6182 29.6842 17.0526 29.1187 17.0526 28.4211V27.1579C17.0526 26.4603 16.4871 25.8947 15.7895 25.8947H14.5263ZM23.3684 27.1579C23.3684 26.4603 23.934 25.8947 24.6316 25.8947H25.8947C26.5924 25.8947 27.1579 26.4603 27.1579 27.1579V28.4211C27.1579 29.1187 26.5924 29.6842 25.8947 29.6842H24.6316C23.934 29.6842 23.3684 29.1187 23.3684 28.4211V27.1579ZM29.6842 30.9474C29.6842 30.2497 30.2497 29.6842 30.9474 29.6842H36.3158C36.839 29.6842 37.2632 30.1084 37.2632 30.6316C37.2632 31.1548 37.6873 31.5789 38.2105 31.5789H39.7895C40.4871 31.5789 41.0526 32.1445 41.0526 32.8421V39.7895C41.0526 40.4871 40.4871 41.0526 39.7895 41.0526H38.5263C37.8287 41.0526 37.2632 40.4871 37.2632 39.7895V34.7368C37.2632 34.0392 36.6976 33.4737 36 33.4737H34.7368C34.0392 33.4737 33.4737 34.0392 33.4737 34.7368V39.7895C33.4737 40.4871 32.9081 41.0526 32.2105 41.0526H30.9474C30.2497 41.0526 29.6842 40.4871 29.6842 39.7895V30.9474ZM43.5789 30.9474C43.5789 30.2497 44.1445 29.6842 44.8421 29.6842H46.1053C46.8029 29.6842 47.3684 30.2497 47.3684 30.9474V34.1053C47.3684 34.8029 47.934 35.3684 48.6316 35.3684H49.8947C50.5924 35.3684 51.1579 34.8029 51.1579 34.1053V30.9474C51.1579 30.2497 51.7234 29.6842 52.4211 29.6842H53.6842C54.3818 29.6842 54.9474 30.2497 54.9474 30.9474V40.1053C54.9474 40.6285 54.5232 41.0526 54 41.0526C53.4768 41.0526 53.0526 41.4768 53.0526 42V43.5789C53.0526 44.2766 52.4871 44.8421 51.7895 44.8421H46.7368C46.0392 44.8421 45.4737 44.2766 45.4737 43.5789V42.3158C45.4737 41.6182 46.0392 41.0526 46.7368 41.0526H50.2105C50.7337 41.0526 51.1579 40.6285 51.1579 40.1053C51.1579 39.582 50.7337 39.1579 50.2105 39.1579H44.8421C44.1445 39.1579 43.5789 38.5924 43.5789 37.8947V30.9474ZM23.3684 32.8421C23.3684 32.1445 23.934 31.5789 24.6316 31.5789H25.8947C26.5924 31.5789 27.1579 32.1445 27.1579 32.8421V39.7895C27.1579 40.4871 26.5924 41.0526 25.8947 41.0526H24.6316C23.934 41.0526 23.3684 40.4871 23.3684 39.7895V32.8421Z" fill="#925FF2"/>
</g>
<defs>
<clipPath id="clip0_4398_5477">
<rect width="72" height="72" fill="white"/>
</clipPath>
</defs>
</svg>
