<svg width="844" height="160" viewBox="0 0 844 160" fill="none" xmlns="http://www.w3.org/2000/svg">
<path d="M84 12C84 5.37258 89.3726 0 96 0H104C110.627 0 116 5.37258 116 12V20C116 26.6274 110.627 32 104 32H96C89.3726 32 84 26.6274 84 20V12Z" fill="#8344E9"/>
<path d="M84 116C84 122.627 89.3726 128 96 128H104C110.627 128 116 122.627 116 116V60C116 53.3726 110.627 48 104 48H96C89.3726 48 84 53.3726 84 60V116Z" fill="#8344E9"/>
<path d="M0 116C0 122.627 5.37258 128 12 128H52C58.6274 128 64 122.627 64 116V108C64 101.373 58.6274 96 52 96H44C37.3726 96 32 90.6274 32 84V76C32 69.3726 37.3726 64 44 64H52C58.6274 64 64 58.6274 64 52V44C64 37.3726 58.6274 32 52 32H44C37.3726 32 32 26.6274 32 20V12C32 5.37258 26.6274 0 20 0H12C5.37258 0 0 5.37258 0 12V116Z" fill="#8344E9"/>
<path d="M284 44C284 37.3726 278.627 32 272 32H264C257.373 32 252 37.3726 252 44V100C252 106.627 257.373 112 264 112H308C312.418 112 316 115.582 316 120C316 124.418 312.418 128 308 128H280C273.373 128 268 133.373 268 140V148C268 154.627 273.373 160 280 160H320C326.627 160 332 154.627 332 148V136C332 131.582 335.582 128 340 128C344.418 128 348 124.418 348 120V44C348 37.3726 342.627 32 336 32H328C321.373 32 316 37.3726 316 44V68C316 74.6274 310.627 80 304 80H296C289.373 80 284 74.6274 284 68V44Z" fill="#8344E9"/>
<path d="M148 32C141.373 32 136 37.3726 136 44V116C136 122.627 141.373 128 148 128H156C162.627 128 168 122.627 168 116V76C168 69.3726 173.373 64 180 64H188C194.627 64 200 69.3726 200 76V116C200 122.627 205.373 128 212 128H220C226.627 128 232 122.627 232 116V60C232 53.3726 226.627 48 220 48H208C203.582 48 200 44.4183 200 40C200 35.5817 196.418 32 192 32H148Z" fill="#8344E9"/>
<path d="M432 128C436.418 128 440 124.418 440 120C440 115.582 443.582 112 448 112H452C458.627 112 464 106.627 464 100V44C464 37.3726 458.627 32 452 32H444C437.373 32 432 37.3726 432 44V84C432 90.6274 426.627 96 420 96H412C405.373 96 400 90.6274 400 84V44C400 37.3726 394.627 32 388 32H380C373.373 32 368 37.3726 368 44V100C368 106.627 373.373 112 380 112H384C388.418 112 392 115.582 392 120C392 124.418 395.582 128 400 128H432Z" fill="#8344E9"/>
<path fill-rule="evenodd" clip-rule="evenodd" d="M496 32C489.373 32 484 37.3726 484 44V116C484 122.627 489.373 128 496 128H556C560.418 128 564 124.418 564 120C564 115.582 560.418 112 556 112H524C519.582 112 516 108.418 516 104C516 99.5817 519.582 96 524 96H552C558.627 96 564 90.6274 564 84V44C564 37.3726 558.627 32 552 32H496ZM540 64C544.418 64 548 67.5817 548 72C548 76.4183 544.418 80 540 80H524C519.582 80 516 76.4183 516 72C516 67.5817 519.582 64 524 64H540Z" fill="#8344E9"/>
<path fill-rule="evenodd" clip-rule="evenodd" d="M764 44C764 37.3726 769.373 32 776 32H832C838.627 32 844 37.3726 844 44V84C844 90.6274 838.627 96 832 96H804C799.582 96 796 99.5817 796 104C796 108.418 799.582 112 804 112H836C840.418 112 844 115.582 844 120C844 124.418 840.418 128 836 128H776C769.373 128 764 122.627 764 116V44ZM820 80C824.418 80 828 76.4183 828 72C828 67.5817 824.418 64 820 64H804C799.582 64 796 67.5817 796 72C796 76.4183 799.582 80 804 80H820Z" fill="#8344E9"/>
<path d="M596 32C589.373 32 584 37.3726 584 44V116C584 122.627 589.373 128 596 128H604C610.627 128 616 122.627 616 116V76C616 69.3726 621.373 64 628 64H636C642.627 64 648 58.6274 648 52V44C648 37.3726 642.627 32 636 32H596Z" fill="#8344E9"/>
<path d="M664 68C664 74.6274 669.373 80 676 80H704C708.418 80 712 83.5817 712 88C712 92.4183 708.418 96 704 96H676C669.373 96 664 101.373 664 108V116C664 122.627 669.373 128 676 128H732C738.627 128 744 122.627 744 116V76C744 69.3726 738.627 64 732 64H704C699.582 64 696 60.4183 696 56C696 51.5817 699.582 48 704 48H732C738.627 48 744 42.6274 744 36V28C744 21.3726 738.627 16 732 16H704C699.582 16 696 19.5817 696 24C696 28.4183 692.418 32 688 32H676C669.373 32 664 37.3726 664 44V68Z" fill="#8344E9"/>
</svg>
