<svg width="820" height="160" viewBox="0 0 820 160" fill="none" xmlns="http://www.w3.org/2000/svg">
<path d="M84 12C84 5.37258 89.3726 0 96 0H104C110.627 0 116 5.37258 116 12V20C116 26.6274 110.627 32 104 32H96C89.3726 32 84 26.6274 84 20V12Z" fill="#925FF2"/>
<path d="M136 44C136 37.3726 141.373 32 148 32H192C196.418 32 200 35.5817 200 40C200 44.4183 203.582 48 208 48H220C226.627 48 232 53.3726 232 60V116C232 122.627 226.627 128 220 128H212C205.373 128 200 122.627 200 116V76C200 69.3726 194.627 64 188 64H180C173.373 64 168 69.3726 168 76V116C168 122.627 162.627 128 156 128H148C141.373 128 136 122.627 136 116V44Z" fill="#925FF2"/>
<path d="M264 32C257.373 32 252 37.3726 252 44V100C252 106.627 257.373 112 264 112H308C312.418 112 316 115.582 316 120C316 124.418 312.418 128 308 128H280C273.373 128 268 133.373 268 140V148C268 154.627 273.373 160 280 160H320C326.627 160 332 154.627 332 148V136C332 131.582 335.582 128 340 128C344.418 128 348 124.418 348 120V44C348 37.3726 342.627 32 336 32H328C321.373 32 316 37.3726 316 44V68C316 74.6274 310.627 80 304 80H296C289.373 80 284 74.6274 284 68V44C284 37.3726 278.627 32 272 32H264Z" fill="#925FF2"/>
<path d="M84 60C84 53.3726 89.3726 48 96 48H104C110.627 48 116 53.3726 116 60V116C116 122.627 110.627 128 104 128H96C89.3726 128 84 122.627 84 116V60Z" fill="#925FF2"/>
<path d="M0 12C0 5.37258 5.37258 0 12 0H20C26.6274 0 32 5.37258 32 12V20C32 26.6274 37.3726 32 44 32H52C58.6274 32 64 37.3726 64 44V52C64 58.6274 58.6274 64 52 64H44C37.3726 64 32 69.3726 32 76V84C32 90.6274 37.3726 96 44 96H52C58.6274 96 64 101.373 64 108V116C64 122.627 58.6274 128 52 128H12C5.37258 128 0 122.627 0 116V12Z" fill="#925FF2"/>
<path d="M408 0C403.582 0 400 3.58172 400 8C400 12.4183 396.418 16 392 16H380C373.373 16 368 21.3726 368 28V116C368 122.627 373.373 128 380 128H388C394.627 128 400 122.627 400 116V108C400 101.373 405.373 96 412 96H420C426.627 96 432 90.6274 432 84V76C432 69.3726 426.627 64 420 64H412C405.373 64 400 58.6274 400 52V44C400 37.3726 405.373 32 412 32H420C426.627 32 432 26.6274 432 20V12C432 5.37258 426.627 0 420 0H408Z" fill="#00C74F"/>
<path d="M592 32C585.373 32 580 37.3726 580 44V116C580 122.627 585.373 128 592 128H600C606.627 128 612 122.627 612 116V76C612 69.3726 617.373 64 624 64H632C638.627 64 644 58.6274 644 52V44C644 37.3726 638.627 32 632 32H592Z" fill="#00C74F"/>
<path d="M660 44C660 37.3726 665.373 32 672 32H780C784.418 32 788 35.5817 788 40C788 44.4183 791.582 48 796 48H808C814.627 48 820 53.3726 820 60V116C820 122.627 814.627 128 808 128H800C793.373 128 788 122.627 788 116V76C788 69.3726 782.627 64 776 64H768C761.373 64 756 69.3726 756 76V116C756 122.627 750.627 128 744 128H736C729.373 128 724 122.627 724 116V76C724 69.3726 718.627 64 712 64H704C697.373 64 692 69.3726 692 76V116C692 122.627 686.627 128 680 128H672C665.373 128 660 122.627 660 116V44Z" fill="#00C74F"/>
<path fill-rule="evenodd" clip-rule="evenodd" d="M468 56C468 60.4183 464.418 64 460 64C455.582 64 452 67.5817 452 72V116C452 122.627 457.373 128 464 128H508C512.418 128 516 124.418 516 120C516 115.582 519.582 112 524 112C528.418 112 532 115.582 532 120C532 124.418 535.582 128 540 128H552C558.627 128 564 122.627 564 116V104C564 99.5817 560.418 96 556 96C551.582 96 548 92.4183 548 88V44C548 37.3726 542.627 32 536 32H480C473.373 32 468 37.3726 468 44V56ZM504 64C510.627 64 516 69.3726 516 76V84C516 90.6274 510.627 96 504 96H496C489.373 96 484 90.6274 484 84V76C484 69.3726 489.373 64 496 64H504Z" fill="#00C74F"/>
</svg>
